<svg width="32" height="32" viewBox="0 0 32 32" fill="none" xmlns="http://www.w3.org/2000/svg">
<g id="reshot-icon-career-choice-T3EZDXQ8HS 1">
<g id="Layer_1">
<g id="Group">
<path id="Vector" d="M16.5679 18.8062C16.5679 18.8062 16.9939 20.3885 18.2206 20.4619C18.2206 20.4619 16.5831 21.0275 16.5555 22.2372C16.5555 22.2372 16.2332 20.5407 14.9398 20.4798C14.9398 20.4798 16.4461 20.2515 16.5679 18.8062Z" fill="#D6DF58"/>
<path id="Vector_2" d="M16.5552 22.4245C16.4661 22.4245 16.3884 22.3613 16.3711 22.2723C16.3682 22.2568 16.0594 20.7201 14.931 20.6669C14.8346 20.6624 14.7575 20.5856 14.7525 20.4893C14.7475 20.393 14.8164 20.3088 14.9116 20.2943C14.9667 20.2858 16.2734 20.0673 16.3809 18.7903C16.3886 18.6995 16.4602 18.6276 16.5507 18.6194C16.6425 18.613 16.725 18.6693 16.7487 18.7571C16.7526 18.7716 17.1561 20.2104 18.2316 20.2749C18.3209 20.2803 18.3939 20.3479 18.406 20.4364C18.4182 20.5249 18.3662 20.6099 18.2817 20.6391C18.2666 20.6444 16.7669 21.178 16.7427 22.2415C16.7405 22.3374 16.6665 22.416 16.5709 22.424C16.5657 22.4244 16.5605 22.4245 16.5552 22.4245ZM15.5876 20.4584C16.0724 20.7045 16.3664 21.1766 16.536 21.5679C16.7892 21.0653 17.2786 20.7195 17.6546 20.5145C17.1377 20.2841 16.8067 19.8081 16.6129 19.4241C16.3887 19.9693 15.954 20.2828 15.5876 20.4584Z" fill="#3A312A"/>
<path id="Vector_3" d="M13.8555 20.9286C13.8555 20.9286 14.1569 22.0479 15.0245 22.0998C15.0245 22.0998 13.8662 22.4999 13.8467 23.3554C13.8467 23.3554 13.6187 22.1554 12.704 22.1124C12.704 22.1124 13.7694 21.951 13.8555 20.9286Z" fill="#D6DF58"/>
<path id="Vector_4" d="M13.8465 23.543C13.7572 23.543 13.6794 23.4796 13.6624 23.3905C13.6604 23.3802 13.4494 22.3352 12.6951 22.2997C12.5987 22.2952 12.5216 22.2185 12.5166 22.1221C12.5116 22.0259 12.5805 21.9416 12.6757 21.927C12.7127 21.9211 13.5961 21.7717 13.6684 20.9129C13.6761 20.8221 13.7479 20.75 13.8385 20.7419C13.929 20.7352 14.0125 20.7917 14.0361 20.8796C14.0389 20.8895 14.3147 21.8696 15.0354 21.9129C15.1246 21.9182 15.1977 21.9859 15.2099 22.0745C15.222 22.1631 15.1699 22.2481 15.0852 22.2772C15.0752 22.2807 14.0501 22.6462 14.0339 23.3599C14.0316 23.4559 13.9575 23.5346 13.8619 23.5425C13.8569 23.5427 13.8516 23.543 13.8465 23.543ZM13.2817 22.102C13.545 22.2686 13.722 22.5264 13.8375 22.7619C14.0095 22.4829 14.277 22.278 14.5081 22.1404C14.2222 21.9817 14.0226 21.7215 13.8905 21.4872C13.7439 21.7732 13.5136 21.9719 13.2817 22.102Z" fill="#3A312A"/>
<path id="Vector_5" d="M13.8555 17.5964C13.8555 17.5964 14.1569 18.7156 15.0245 18.7676C15.0245 18.7676 13.8662 19.1678 13.8467 20.0233C13.8467 20.0233 13.6187 18.8233 12.704 18.7803C12.704 18.7803 13.7694 18.6189 13.8555 17.5964Z" fill="#D6DF58"/>
<path id="Vector_6" d="M13.8465 20.2108C13.7572 20.2108 13.6794 20.1474 13.6624 20.0583C13.6604 20.048 13.4494 19.003 12.6951 18.9674C12.5987 18.9629 12.5216 18.8861 12.5166 18.7898C12.5116 18.6935 12.5805 18.6093 12.6757 18.5946C12.7127 18.5888 13.5961 18.4394 13.6684 17.5805C13.6761 17.4898 13.7479 17.4176 13.8385 17.4095C13.929 17.403 14.0125 17.4595 14.0361 17.5473C14.0389 17.5571 14.3147 18.5373 15.0354 18.5804C15.1246 18.5856 15.1977 18.6534 15.2099 18.742C15.222 18.8306 15.1699 18.9155 15.0854 18.9448C15.0752 18.9483 14.0501 19.3139 14.0339 20.0275C14.0316 20.1235 13.9575 20.2021 13.8619 20.2101C13.8569 20.2106 13.8516 20.2108 13.8465 20.2108ZM13.2817 18.7699C13.545 18.9365 13.722 19.1941 13.8375 19.4298C14.0095 19.1508 14.277 18.9458 14.5081 18.8081C14.2222 18.6494 14.0226 18.3894 13.8905 18.1551C13.7439 18.4411 13.5136 18.6398 13.2817 18.7699Z" fill="#3A312A"/>
<path id="Vector_7" d="M6.23786 28.069V28.945C6.23786 29.4668 5.81461 29.89 5.29161 29.89H5.09798C4.57611 29.89 4.15298 29.4668 4.15298 28.945V28.069H6.23786Z" fill="#87796F"/>
<path id="Vector_8" d="M5.29161 30.0775H5.09786C4.47336 30.0775 3.96536 29.5695 3.96536 28.9448V28.0688C3.96536 27.9653 4.04936 27.8813 4.15286 27.8813H6.23799C6.34149 27.8813 6.42549 27.9653 6.42549 28.0688V28.9448C6.42536 29.5695 5.91674 30.0775 5.29161 30.0775ZM4.34036 28.2565V28.945C4.34036 29.3627 4.68024 29.7026 5.09799 29.7026H5.29174C5.71024 29.7026 6.05049 29.3627 6.05049 28.945V28.2565H4.34036Z" fill="#3A312A"/>
<path id="Vector_9" d="M8.3216 28.069V28.945C8.3216 29.4668 7.89848 29.89 7.3766 29.89H7.18298C6.6611 29.89 6.23798 29.4668 6.23798 28.945V28.069H8.3216Z" fill="#87796F"/>
<path id="Vector_10" d="M7.3766 30.0775H7.18285C6.55848 30.0775 6.05035 29.5695 6.05035 28.9448V28.0688C6.05035 27.9653 6.13435 27.8813 6.23785 27.8813H8.3216C8.4251 27.8813 8.5091 27.9653 8.5091 28.0688V28.9448C8.5091 29.5695 8.0011 30.0775 7.3766 30.0775ZM6.42535 28.2565V28.945C6.42535 29.3627 6.76523 29.7026 7.18285 29.7026H7.3766C7.79435 29.7026 8.1341 29.3627 8.1341 28.945V28.2565H6.42535Z" fill="#3A312A"/>
<path id="Vector_11" d="M3.62048 24.9924V28.0695H8.90386V19.9194H3.62048V23.3357V24.9924Z" fill="#8AC6DD"/>
<path id="Vector_12" d="M8.90373 28.257H3.62048C3.51698 28.257 3.43298 28.173 3.43298 28.0695V24.9924C3.43298 24.8889 3.51698 24.8049 3.62048 24.8049C3.72398 24.8049 3.80798 24.8889 3.80798 24.9924V27.882H8.71623V20.107H3.80798V23.3359C3.80798 23.4394 3.72398 23.5234 3.62048 23.5234C3.51698 23.5234 3.43298 23.4394 3.43298 23.3359V19.9195C3.43298 19.816 3.51698 19.732 3.62048 19.732H8.90373C9.00723 19.732 9.09123 19.816 9.09123 19.9195V28.0695C9.09123 28.173 9.00736 28.257 8.90373 28.257Z" fill="#3A312A"/>
<path id="Vector_13" d="M6.237 28.257C6.1335 28.257 6.0495 28.173 6.0495 28.0695V19.9195C6.0495 19.816 6.1335 19.732 6.237 19.732C6.3405 19.732 6.4245 19.816 6.4245 19.9195V28.0695C6.4245 28.173 6.34062 28.257 6.237 28.257Z" fill="#3A312A"/>
<path id="Vector_14" d="M10.4152 14.5455V19.9203H2.10736V14.5455C2.10736 13.5106 2.94761 12.6703 3.98261 12.6703H5.22074V11.8905C5.56949 12.1413 5.92699 12.2898 6.26574 12.2898C6.60874 12.2898 6.96186 12.1514 7.30349 11.915V12.6703H8.54299C9.57636 12.6703 10.4152 13.5106 10.4152 14.5455Z" fill="#FCE8CB"/>
<path id="Vector_15" d="M10.4151 20.1077H2.10724C2.00374 20.1077 1.91974 20.0237 1.91974 19.9202V14.5455C1.91974 13.408 2.84499 12.4827 3.98249 12.4827H5.03299V11.8905C5.03299 11.8202 5.07249 11.7557 5.13499 11.7236C5.19774 11.6915 5.27274 11.697 5.32999 11.7382C5.66599 11.9799 5.98061 12.1022 6.26549 12.1022C6.55599 12.1022 6.86924 11.9874 7.19649 11.7609C7.25361 11.7212 7.32849 11.7166 7.39024 11.7489C7.45199 11.7814 7.49074 11.8452 7.49074 11.915V12.4827H8.54274C9.67849 12.4827 10.6026 13.408 10.6026 14.5455V19.9202C10.6026 20.0237 10.5186 20.1077 10.4151 20.1077ZM2.29474 19.7327H10.2276V14.5455C10.2276 13.6149 9.47174 12.8577 8.54274 12.8577H7.30324C7.19974 12.8577 7.11574 12.7737 7.11574 12.6702V12.2482C6.53761 12.5517 6.00136 12.5587 5.40799 12.2315V12.6702C5.40799 12.7737 5.32399 12.8577 5.22049 12.8577H3.98249C3.05186 12.8577 2.29474 13.6149 2.29474 14.5455V19.7327Z" fill="#3A312A"/>
<path id="Vector_16" d="M6.26836 13.8802L6.26599 13.8827L6.26224 13.8802L6.26474 13.8764L6.26836 13.8802Z" fill="#87796F"/>
<path id="Vector_17" d="M6.26587 14.0701C6.23087 14.0701 6.19562 14.0604 6.16437 14.0402C6.07737 13.9841 6.0485 13.8656 6.10462 13.7785C6.13537 13.7309 6.18725 13.6977 6.2435 13.6919C6.29975 13.6861 6.357 13.7039 6.39712 13.7439C6.47037 13.8171 6.47412 13.9395 6.40087 14.0127L6.39837 14.0152C6.36237 14.0514 6.31437 14.0701 6.26587 14.0701Z" fill="#3A312A"/>
<path id="Vector_18" d="M10.4159 14.5459V19.92H2.10724V14.5459C2.10724 13.5113 2.94749 12.671 3.98211 12.671H4.31624L4.31249 12.6735L5.60024 14.3826L6.26599 13.8828L6.93036 14.3826L8.21811 12.6735L8.21436 12.671H8.54224C9.57699 12.6709 10.4159 13.5111 10.4159 14.5459Z" fill="#87796F"/>
<path id="Vector_19" d="M10.4159 20.1075H2.10724C2.00374 20.1075 1.91974 20.0235 1.91974 19.92V14.5458C1.91974 13.4085 2.84486 12.4834 3.98211 12.4834H4.31624C4.39061 12.4834 4.45711 12.5273 4.48711 12.5936L5.63724 14.1203L6.15336 13.7326C6.21999 13.6826 6.31186 13.6825 6.37874 13.7328L6.89336 14.1201L8.05024 12.5848C8.08174 12.5238 8.14374 12.4835 8.21424 12.4835H8.54211C9.67861 12.4835 10.6032 13.4086 10.6032 14.5459V19.9201C10.6034 20.0236 10.5194 20.1075 10.4159 20.1075ZM2.29474 19.7325H10.2284V14.5458C10.2284 13.6154 9.47199 12.8584 8.54224 12.8584H8.31361L7.08024 14.4954C7.01786 14.5781 6.90024 14.5948 6.81761 14.5324L6.26586 14.1173L5.71274 14.5325C5.63024 14.5949 5.51274 14.5781 5.45036 14.4954L4.21699 12.8584H3.98211C3.05174 12.8584 2.29474 13.6154 2.29474 14.5458V19.7325Z" fill="#3A312A"/>
<path id="Vector_20" d="M3.62048 20.107C3.51698 20.107 3.43298 20.023 3.43298 19.9195V14.9022C3.43298 14.7987 3.51698 14.7147 3.62048 14.7147C3.72398 14.7147 3.80798 14.7987 3.80798 14.9022V19.9195C3.80798 20.0231 3.72398 20.107 3.62048 20.107Z" fill="#3A312A"/>
<path id="Vector_21" d="M8.90375 20.107C8.80025 20.107 8.71625 20.023 8.71625 19.9195V14.9022C8.71625 14.7987 8.80025 14.7147 8.90375 14.7147C9.00725 14.7147 9.09125 14.7987 9.09125 14.9022V19.9195C9.09125 20.0231 9.00737 20.107 8.90375 20.107Z" fill="#3A312A"/>
<path id="Vector_22" d="M9.66012 21.432C9.24249 21.432 8.90387 21.0934 8.90387 20.6756V19.9194H10.4165V20.6756C10.4165 21.0934 10.0779 21.432 9.66012 21.432Z" fill="#FCE8CB"/>
<path id="Vector_23" d="M9.66012 21.6195C9.13975 21.6195 8.71625 21.196 8.71625 20.6756V19.9194C8.71625 19.8159 8.80025 19.7319 8.90375 19.7319H10.4165C10.52 19.7319 10.604 19.8159 10.604 19.9194V20.6756C10.604 21.196 10.1805 21.6195 9.66012 21.6195ZM9.09125 20.1069V20.6756C9.09125 20.9894 9.34637 21.2445 9.66012 21.2445C9.97387 21.2445 10.229 20.9894 10.229 20.6756V20.1069H9.09125Z" fill="#3A312A"/>
<path id="Vector_24" d="M7.12135 18.3134L6.2591 19.2948L5.3956 18.3134L5.87347 15.2149H6.6446L7.12135 18.3134Z" fill="#8AC6DD"/>
<path id="Vector_25" d="M6.25898 19.4823C6.2051 19.4823 6.15373 19.459 6.11823 19.4187L5.25473 18.4372C5.21798 18.3954 5.20173 18.3397 5.2101 18.2847L5.6881 15.1863C5.70223 15.0949 5.78085 15.0274 5.87335 15.0274H6.64448C6.73698 15.0274 6.81573 15.0949 6.82973 15.1863L7.30635 18.2847C7.31473 18.3395 7.2986 18.3953 7.26198 18.437L6.39973 19.4185C6.36423 19.4592 6.31298 19.4823 6.25898 19.4823ZM5.59423 18.2554L6.25885 19.0109L6.92273 18.2554L6.48373 15.4025H6.03423L5.59423 18.2554Z" fill="#3A312A"/>
<path id="Vector_26" d="M6.91037 13.8796L6.64362 15.2149H5.87412L5.61349 13.8796H6.91037Z" fill="#8AC6DD"/>
<path id="Vector_27" d="M6.64348 15.4025H5.87411C5.78436 15.4025 5.70723 15.3389 5.68998 15.2509L5.42936 13.9155C5.41873 13.8606 5.43311 13.8036 5.46861 13.7604C5.50423 13.7171 5.55736 13.6921 5.61336 13.6921H6.91023C6.96636 13.6921 7.01961 13.7173 7.05523 13.7608C7.09086 13.8043 7.10498 13.8614 7.09398 13.9164L6.82711 15.2518C6.80986 15.3394 6.73286 15.4025 6.64348 15.4025ZM6.02861 15.0275H6.48986L6.68173 14.0671H5.84111L6.02861 15.0275Z" fill="#3A312A"/>
<path id="Vector_28" fill-rule="evenodd" clip-rule="evenodd" d="M3.77598 8.05677C3.77598 8.46539 3.44473 8.79664 3.03611 8.79664C2.62748 8.79664 2.29623 8.46539 2.29623 8.05677C2.29623 7.64814 2.62748 7.31689 3.03611 7.31689C3.44473 7.31689 3.77598 7.64827 3.77598 8.05677Z" fill="#FCE8CB"/>
<path id="Vector_29" d="M3.03611 8.98427C2.52473 8.98427 2.10873 8.56827 2.10873 8.05677C2.10873 7.54539 2.52473 7.12939 3.03611 7.12939C3.54761 7.12939 3.96361 7.54539 3.96361 8.05677C3.96361 8.56827 3.54761 8.98427 3.03611 8.98427ZM3.03611 7.50439C2.73148 7.50439 2.48373 7.75214 2.48373 8.05677C2.48373 8.36152 2.73148 8.60927 3.03611 8.60927C3.34086 8.60927 3.58861 8.36152 3.58861 8.05677C3.58861 7.75227 3.34086 7.50439 3.03611 7.50439Z" fill="#3A312A"/>
<path id="Vector_30" fill-rule="evenodd" clip-rule="evenodd" d="M10.234 8.05677C10.234 8.46539 9.90274 8.79664 9.49412 8.79664C9.08549 8.79664 8.75424 8.46539 8.75424 8.05677C8.75424 7.64814 9.08549 7.31689 9.49412 7.31689C9.90274 7.31689 10.234 7.64827 10.234 8.05677Z" fill="#FCE8CB"/>
<path id="Vector_31" d="M9.49412 8.98427C8.98274 8.98427 8.56674 8.56827 8.56674 8.05677C8.56674 7.54539 8.98274 7.12939 9.49412 7.12939C10.0055 7.12939 10.4215 7.54539 10.4215 8.05677C10.4215 8.56827 10.0055 8.98427 9.49412 8.98427ZM9.49412 7.50439C9.18949 7.50439 8.94174 7.75214 8.94174 8.05677C8.94174 8.36152 9.18949 8.60927 9.49412 8.60927C9.79874 8.60927 10.0465 8.36152 10.0465 8.05677C10.0465 7.75227 9.79874 7.50439 9.49412 7.50439Z" fill="#3A312A"/>
<path id="Vector_32" d="M9.54511 7.6976C9.54511 9.5091 7.80048 12.2896 6.26511 12.2896C4.79948 12.2896 2.98511 9.5091 2.98511 7.6976C2.98511 5.8861 4.45361 4.4176 6.26511 4.4176C8.07661 4.4176 9.54511 5.8861 9.54511 7.6976Z" fill="#FCE8CB"/>
<path id="Vector_33" d="M6.26511 12.4771C4.65748 12.4771 2.79761 9.58473 2.79761 7.6976C2.79761 5.7856 4.35311 4.2301 6.26511 4.2301C8.17711 4.2301 9.73261 5.7856 9.73261 7.6976C9.73261 9.62823 7.90611 12.4771 6.26511 12.4771ZM6.26511 4.6051C4.55986 4.6051 3.17261 5.99248 3.17261 7.6976C3.17261 9.37123 4.90023 12.1021 6.26511 12.1021C7.66898 12.1021 9.35761 9.39673 9.35761 7.6976C9.35761 5.99235 7.97036 4.6051 6.26511 4.6051Z" fill="#3A312A"/>
<path id="Vector_34" d="M6.30299 3.69373C4.42799 3.69373 2.90799 5.14698 2.90799 6.9396C2.90799 7.12935 2.94236 7.27073 3.00611 7.44735C3.03624 7.5306 3.52236 7.26473 3.56374 7.2356C3.77074 7.08985 3.93986 6.89235 4.06636 6.67398C4.11861 6.58323 4.16224 6.49073 4.19736 6.39835C4.30924 6.10348 4.61336 5.2831 4.92211 5.34748C5.33611 5.43373 5.80536 5.4826 6.30311 5.4826C6.80086 5.4826 7.27011 5.43385 7.68411 5.34748C7.99286 5.2831 8.29699 6.1036 8.40886 6.39835C8.44399 6.49073 8.48761 6.58323 8.53986 6.67398C8.74874 7.03523 9.10149 7.3791 9.53061 7.44173C9.53161 7.42098 9.55787 7.41398 9.57736 7.40685C9.71786 7.35585 9.69811 7.05235 9.69811 6.93973C9.69799 5.14685 8.17799 3.69373 6.30299 3.69373Z" fill="#87796F"/>
<path id="Vector_35" d="M3.03199 7.64873C3.00774 7.64873 2.98536 7.64598 2.96561 7.63973C2.90161 7.6196 2.85224 7.57273 2.82986 7.5111C2.76424 7.32923 2.72061 7.1626 2.72061 6.9396C2.72061 5.04635 4.32774 3.50623 6.30299 3.50623C8.27849 3.50623 9.88549 5.04635 9.88549 6.93948L9.88586 6.9746C9.88849 7.14973 9.89311 7.47135 9.66311 7.57398C9.65874 7.57835 9.65411 7.58248 9.64936 7.5866C9.60849 7.6201 9.55499 7.63485 9.50349 7.6271C9.07336 7.56448 8.65249 7.24323 8.37736 6.76773C8.32111 6.66985 8.27274 6.56798 8.23349 6.46485L8.22661 6.44673C7.91536 5.62498 7.75786 5.5381 7.71711 5.5311C7.28011 5.62298 6.80261 5.66973 6.30311 5.66973C5.80361 5.66973 5.32611 5.62298 4.88386 5.53085C4.84836 5.53823 4.69124 5.62485 4.37999 6.4456L4.37274 6.4646C4.33361 6.56785 4.28524 6.66973 4.22899 6.76735C4.08261 7.02048 3.88999 7.2351 3.67186 7.38873C3.66761 7.39173 3.26336 7.64873 3.03199 7.64873ZM9.56049 7.4126L9.62849 7.58735C9.63224 7.58585 9.63624 7.58398 9.64049 7.58148L9.56049 7.4126ZM6.30299 3.88123C4.53449 3.88123 3.09561 5.25323 3.09561 6.9396C3.09561 7.05435 3.11011 7.1471 3.13649 7.24223C3.24899 7.19535 3.40761 7.11335 3.45824 7.08048C3.62974 6.9596 3.78474 6.7861 3.90386 6.57998C3.95011 6.49985 3.98986 6.41635 4.02186 6.33173L4.02911 6.31285C4.27424 5.66635 4.55911 5.08035 4.96011 5.16385C5.37736 5.25085 5.82899 5.29498 6.30286 5.29498C6.77674 5.29498 7.22836 5.25098 7.64549 5.16385C8.05049 5.08098 8.33199 5.66698 8.57711 6.3141L8.58386 6.33185C8.61611 6.41648 8.65586 6.50023 8.70199 6.58048C8.90299 6.9281 9.19099 7.17035 9.48399 7.24185C9.48599 7.24098 9.48799 7.2401 9.48999 7.23923C9.50574 7.20098 9.51274 7.1141 9.51074 6.98023L9.51036 6.9396C9.51049 5.2531 8.07161 3.88123 6.30299 3.88123Z" fill="#3A312A"/>
<path id="Vector_36" d="M3.17862 4.01185C3.43774 4.42035 3.73887 4.80247 4.09212 5.13285C4.52087 5.5336 5.00662 5.8626 5.51762 6.00785C6.81324 6.37622 9.10637 5.91672 9.10637 4.05185C9.10637 2.85935 8.10687 1.4181 6.24162 2.51547C3.92949 3.87585 2.58749 1.2611 2.58749 2.45347C2.58749 2.56797 2.60862 2.70697 2.64274 2.85197C2.72449 3.19897 2.87124 3.52735 3.06224 3.82847L3.17862 4.01185Z" fill="#87796F"/>
<path id="Vector_37" d="M6.42312 6.31175C6.07662 6.31175 5.74699 6.268 5.46649 6.18825C4.97074 6.04737 4.46537 5.73837 3.96424 5.26987C3.62249 4.95025 3.30499 4.56075 3.02037 4.11225L2.90399 3.92887C2.69274 3.59587 2.54337 3.248 2.46024 2.895C2.42024 2.72525 2.39999 2.57675 2.39999 2.4535C2.39999 2.28387 2.42099 2.077 2.58487 1.98425C2.77724 1.87525 2.99487 2.00562 3.29587 2.186C3.87674 2.5345 4.84912 3.11725 6.14687 2.354C7.16874 1.75262 7.88149 1.91175 8.29999 2.15075C8.90399 2.49625 9.29424 3.24237 9.29424 4.05187C9.29424 4.72612 9.01237 5.29525 8.47912 5.69812C7.90799 6.12925 7.13049 6.31175 6.42312 6.31175ZM2.78262 2.33175C2.77862 2.35712 2.77487 2.39587 2.77487 2.4535C2.77487 2.5465 2.79224 2.6695 2.82512 2.80912C2.89862 3.12125 3.03162 3.4305 3.22049 3.728L3.33687 3.91137C3.60449 4.33312 3.90162 4.69812 4.22012 4.996C4.67724 5.42337 5.13112 5.70312 5.56887 5.82762C6.31437 6.03937 7.50799 5.96125 8.25262 5.39887C8.69474 5.065 8.91887 4.61175 8.91887 4.05187C8.91887 3.497 8.66987 2.7945 8.11337 2.47625C7.63724 2.20387 7.02262 2.2735 6.33674 2.67725C4.84699 3.55412 3.71249 2.87325 3.10274 2.50775C2.99174 2.441 2.85874 2.36137 2.78262 2.33175Z" fill="#3A312A"/>
<path id="Vector_38" d="M5.42461 7.66064C5.42461 7.83752 5.28124 7.98077 5.10449 7.98077C4.92774 7.98077 4.78436 7.83752 4.78436 7.66064C4.78436 7.48389 4.92774 7.34052 5.10449 7.34052C5.28124 7.34052 5.42461 7.48389 5.42461 7.66064Z" fill="#3A312A"/>
<path id="Vector_39" d="M7.74062 7.66064C7.74062 7.83752 7.59725 7.98077 7.4205 7.98077C7.24375 7.98077 7.10037 7.83752 7.10037 7.66064C7.10037 7.48389 7.24375 7.34052 7.4205 7.34052C7.59725 7.34052 7.74062 7.48389 7.74062 7.66064Z" fill="#3A312A"/>
<path id="Vector_40" d="M5.01612 8.61238C5.01612 8.84013 4.76924 9.02463 4.46462 9.02463C4.15999 9.02463 3.91312 8.84001 3.91312 8.61238C3.91312 8.38463 4.15999 8.20013 4.46462 8.20013C4.76912 8.20013 5.01612 8.38476 5.01612 8.61238Z" fill="#F5978A"/>
<path id="Vector_41" d="M8.61173 8.61238C8.61173 8.84013 8.36485 9.02463 8.06023 9.02463C7.7556 9.02463 7.50873 8.84001 7.50873 8.61238C7.50873 8.38463 7.7556 8.20013 8.06023 8.20013C8.36485 8.20013 8.61173 8.38476 8.61173 8.61238Z" fill="#F5978A"/>
<path id="Vector_42" d="M6.25835 10.4856C5.7566 10.4856 5.39485 10.2597 5.18272 9.81449C5.13822 9.72099 5.17797 9.60912 5.27147 9.56462C5.3651 9.52037 5.47685 9.55987 5.52135 9.65337C5.66985 9.96537 5.90397 10.1106 6.25835 10.1106C6.67297 10.1106 6.92247 9.84599 6.9891 9.66824C7.02547 9.57112 7.13372 9.52187 7.23047 9.55824C7.32747 9.59462 7.37672 9.70262 7.34047 9.79962C7.2166 10.13 6.82547 10.4856 6.25835 10.4856Z" fill="#3A312A"/>
<path id="Vector_43" d="M4.9805 12.1703L4.31287 12.6735L5.60086 14.3824L6.26849 13.8792L4.9805 12.1703Z" fill="#D7E057"/>
<path id="Vector_44" d="M5.60035 14.5702C5.54348 14.5702 5.48735 14.5445 5.45048 14.4955L4.1626 12.7866C4.10035 12.704 4.11685 12.5864 4.19948 12.524L4.86723 12.0209C4.90673 11.991 4.9561 11.9777 5.0061 11.985C5.05535 11.992 5.09985 12.0181 5.12973 12.0579L6.4176 13.7669C6.44748 13.8065 6.46048 13.8565 6.45348 13.9057C6.44648 13.955 6.42035 13.9995 6.3806 14.0294L5.71298 14.5324C5.67935 14.5579 5.6396 14.5702 5.60035 14.5702ZM4.57498 12.7107L5.6371 14.1201L6.00523 13.8427L4.9431 12.4332L4.57498 12.7107Z" fill="#3A312A"/>
<path id="Vector_45" d="M6.26294 13.8793L6.93057 14.3825L8.21856 12.6736L7.55093 12.1704L6.26294 13.8793Z" fill="#D7E057"/>
<path id="Vector_46" d="M6.92987 14.5702C6.89062 14.5702 6.85099 14.5579 6.81724 14.5325L6.14962 14.0295C6.10987 13.9996 6.08374 13.955 6.07674 13.9059C6.06974 13.8565 6.08275 13.8066 6.11262 13.767L7.40049 12.058C7.46274 11.9751 7.58049 11.9589 7.66312 12.021L8.33087 12.5241C8.37062 12.554 8.39675 12.5986 8.40375 12.6477C8.41075 12.6971 8.39775 12.747 8.36787 12.7867L7.07987 14.4955C7.04299 14.5444 6.98687 14.5702 6.92987 14.5702ZM6.52499 13.8427L6.89312 14.1201L7.95537 12.7107L7.58712 12.4332L6.52499 13.8427Z" fill="#3A312A"/>
<path id="Vector_47" d="M6.26836 13.8802L6.26599 13.8827L6.26224 13.8802L6.26474 13.8764L6.26836 13.8802Z" fill="#D7E057"/>
<path id="Vector_48" d="M6.26587 14.0701C6.23087 14.0701 6.19562 14.0604 6.16437 14.0402C6.07737 13.9841 6.0485 13.8656 6.10462 13.7785C6.13537 13.7309 6.18725 13.6977 6.2435 13.6919C6.29975 13.6861 6.357 13.7039 6.39712 13.7439C6.47037 13.8171 6.47412 13.9395 6.40087 14.0127L6.39837 14.0152C6.36237 14.0514 6.31437 14.0701 6.26587 14.0701Z" fill="#3A312A"/>
<path id="Vector_49" d="M6.26474 13.8764L6.26836 13.8802L6.26599 13.8827L6.26224 13.8802L6.26474 13.8764Z" fill="#D7E057"/>
<path id="Vector_50" d="M6.26412 14.0692C6.2295 14.0692 6.19462 14.0597 6.16425 14.0402C6.07725 13.9841 6.04837 13.8656 6.1045 13.7785C6.13525 13.7309 6.18712 13.6977 6.24337 13.6919C6.29962 13.6861 6.35687 13.7039 6.397 13.7439L6.40075 13.7476C6.474 13.8209 6.474 13.9395 6.40075 14.0127C6.36412 14.0495 6.31425 14.0692 6.26412 14.0692Z" fill="#3A312A"/>
<path id="Vector_51" d="M2.8641 21.432C2.44635 21.432 2.10785 21.0934 2.10785 20.6756V19.9194H3.62047V20.6756C3.62047 21.0934 3.28185 21.432 2.8641 21.432Z" fill="#FCE8CB"/>
<path id="Vector_52" d="M2.8641 21.6195C2.34372 21.6195 1.92035 21.196 1.92035 20.6756V19.9194C1.92035 19.8159 2.00435 19.7319 2.10785 19.7319H3.62047C3.72397 19.7319 3.80797 19.8159 3.80797 19.9194V20.6756C3.80797 21.196 3.38447 21.6195 2.8641 21.6195ZM2.29535 20.1069V20.6756C2.29535 20.9894 2.55047 21.2445 2.8641 21.2445C3.17785 21.2445 3.43297 20.9894 3.43297 20.6756V20.1069H2.29535Z" fill="#3A312A"/>
<path id="Vector_53" d="M19.4973 21.3686V29.9375H21.3765V2.0625H19.4973V19.7146V21.3686Z" fill="#87796F"/>
<path id="Vector_54" d="M21.3766 30.125H19.4974C19.3939 30.125 19.3099 30.041 19.3099 29.9375V21.3686C19.3099 21.2651 19.3939 21.1811 19.4974 21.1811C19.6009 21.1811 19.6849 21.2651 19.6849 21.3686V29.75H21.1891V2.25H19.6849V19.7148C19.6849 19.8183 19.6009 19.9023 19.4974 19.9023C19.3939 19.9023 19.3099 19.8183 19.3099 19.7148V2.0625C19.3099 1.959 19.3939 1.875 19.4974 1.875H21.3766C21.4801 1.875 21.5641 1.959 21.5641 2.0625V29.9375C21.5641 30.041 21.4801 30.125 21.3766 30.125Z" fill="#3A312A"/>
<path id="Vector_55" d="M13.157 6.875H19.5177V3.25H13.157L10.9886 5.0625L13.157 6.875Z" fill="#EF6D7A"/>
<path id="Vector_56" d="M19.5177 7.0625H13.157C13.113 7.0625 13.0705 7.047 13.0367 7.01875L10.8684 5.20625C10.8257 5.17075 10.8011 5.118 10.8011 5.0625C10.8011 5.007 10.8257 4.95425 10.8684 4.91875L13.0367 3.10625C13.0705 3.078 13.113 3.0625 13.157 3.0625H19.5177C19.6212 3.0625 19.7052 3.1465 19.7052 3.25V6.875C19.7052 6.9785 19.6212 7.0625 19.5177 7.0625ZM13.225 6.6875H19.3302V3.4375H13.225L11.281 5.0625L13.225 6.6875Z" fill="#3A312A"/>
<path id="Vector_57" d="M13.157 14.25H19.5177V10.625H13.157L10.9886 12.4375L13.157 14.25Z" fill="#8AC6DD"/>
<path id="Vector_58" d="M19.5177 14.4375H13.157C13.113 14.4375 13.0705 14.422 13.0367 14.3938L10.8684 12.5813C10.8257 12.5458 10.8011 12.493 10.8011 12.4375C10.8011 12.382 10.8257 12.3292 10.8684 12.2937L13.0367 10.4812C13.0705 10.453 13.113 10.4375 13.157 10.4375H19.5177C19.6212 10.4375 19.7052 10.5215 19.7052 10.625V14.25C19.7052 14.3535 19.6212 14.4375 19.5177 14.4375ZM13.225 14.0625H19.3302V10.8125H13.225L11.281 12.4375L13.225 14.0625Z" fill="#3A312A"/>
<path id="Vector_59" d="M27.7244 17.9375H21.3636V14.3125H27.7244L29.8927 16.125L27.7244 17.9375Z" fill="#8AC5DC"/>
<path id="Vector_60" d="M27.7244 18.125H21.3636C21.2601 18.125 21.1761 18.041 21.1761 17.9375V14.3125C21.1761 14.209 21.2601 14.125 21.3636 14.125H27.7244C27.7684 14.125 27.8109 14.1405 27.8446 14.1687L30.013 15.9812C30.0556 16.0167 30.0802 16.0695 30.0802 16.125C30.0802 16.1805 30.0556 16.2332 30.013 16.2687L27.8446 18.0812C27.8109 18.1095 27.7682 18.125 27.7244 18.125ZM21.5511 17.75H27.6564L29.6004 16.125L27.6564 14.5H21.5511V17.75Z" fill="#3A312A"/>
<path id="Vector_61" d="M27.7244 10.5625H21.3636V6.9375H27.7244L29.8927 8.75L27.7244 10.5625Z" fill="#D5DC57"/>
<path id="Vector_62" d="M27.7244 10.75H21.3636C21.2601 10.75 21.1761 10.666 21.1761 10.5625V6.9375C21.1761 6.834 21.2601 6.75 21.3636 6.75H27.7244C27.7684 6.75 27.8109 6.7655 27.8446 6.79375L30.013 8.60625C30.0556 8.64175 30.0802 8.6945 30.0802 8.75C30.0802 8.8055 30.0556 8.85825 30.013 8.89375L27.8446 10.7063C27.8109 10.7345 27.7682 10.75 27.7244 10.75ZM21.5511 10.375H27.6564L29.6004 8.75L27.6564 7.125H21.5511V10.375Z" fill="#3A312A"/>
<path id="Vector_63" d="M29.6002 16.125L27.6565 17.75H25.7815L27.3679 16.4237C27.554 16.2681 27.554 15.982 27.3679 15.8264L25.7815 14.5H27.6565L29.6002 16.125Z" fill="#6CA8BF"/>
<path id="Vector_64" d="M29.6002 8.75L27.6565 10.375H25.7815L27.3679 9.04875C27.554 8.89312 27.554 8.607 27.3679 8.45138L25.7815 7.125H27.6565L29.6002 8.75Z" fill="#B9C239"/>
</g>
</g>
</g>
</svg>
