<svg width="32" height="32" viewBox="0 0 32 32" fill="none" xmlns="http://www.w3.org/2000/svg">
<g id="reshot-icon-email-TRU6DW7HBS" clip-path="url(#clip0_21873_730)">
<g id="9-Email">
<path id="Vector" d="M4.26667 8V12.6667L1.60001 10.6667L4.26667 8Z" fill="#FFE45C"/>
<path id="Vector_2" d="M27.7333 7.99999V12.6667L19.136 19.1147L17.6 20.2667C17.1517 20.6375 16.5811 20.8277 16 20.8C15.4189 20.8277 14.8483 20.6375 14.4 20.2667L12.864 19.1147L4.26666 12.6667V3.19999C4.26666 2.49275 4.54761 1.81447 5.04771 1.31437C5.54781 0.814277 6.22609 0.533325 6.93333 0.533325H25.0667C25.4169 0.533325 25.7636 0.602301 26.0872 0.736313C26.4107 0.870326 26.7047 1.06675 26.9523 1.31437C27.1999 1.562 27.3963 1.85597 27.5303 2.1795C27.6644 2.50304 27.7333 2.8498 27.7333 3.19999V7.99999Z" fill="white"/>
<path id="Vector_3" d="M30.4 10.6667L27.7333 12.6667V8L30.4 10.6667Z" fill="#FFE45C"/>
<path id="Vector_4" d="M30.4 10.6667C31.0684 11.396 31.4477 12.3442 31.4667 13.3334V28.2667C31.4679 28.687 31.3856 29.1034 31.2244 29.4916C31.0633 29.8799 30.8266 30.2321 30.528 30.528L30.4 30.4L19.2 19.2L19.136 19.1147L27.7333 12.6667L30.4 10.6667Z" fill="#FFC247"/>
<path id="Vector_5" d="M30.4 30.4L30.528 30.528C30.2321 30.8266 29.8798 31.0633 29.4916 31.2245C29.1034 31.3856 28.687 31.468 28.2667 31.4667H3.73332C3.31298 31.468 2.89659 31.3856 2.50837 31.2245C2.12015 31.0633 1.76786 30.8266 1.47198 30.528L1.59998 30.4L12.8 19.2L12.864 19.1147L14.4 20.2667C14.8483 20.6375 15.4188 20.8277 16 20.8C16.5811 20.8277 17.1517 20.6375 17.6 20.2667L19.136 19.1147L19.2 19.2L30.4 30.4Z" fill="#FFE45C"/>
<path id="Vector_6" d="M4.26667 12.6667L12.864 19.1147L12.8 19.2L1.60001 30.4L1.47201 30.528C1.17344 30.2321 0.936697 29.8799 0.77555 29.4916C0.614402 29.1034 0.532069 28.687 0.53334 28.2667V13.3334C0.552284 12.3442 0.931568 11.396 1.60001 10.6667L4.26667 12.6667Z" fill="#FFC247"/>
<path id="Vector_7" d="M14.4 22.4C14.8483 22.7708 15.4189 22.961 16 22.9333C16.5811 22.961 17.1517 22.7708 17.6 22.4L19.168 21.2907L20.4107 20.4107L19.2 19.2L19.168 19.1573L17.6 20.2667C17.1517 20.6375 16.5811 20.8277 16 20.8C15.4189 20.8277 14.8483 20.6375 14.4 20.2667L12.832 19.1573L12.8 19.2L11.5893 20.4107L12.832 21.2907L14.4 22.4Z" fill="#FFC247"/>
<path id="Vector_8" d="M29.3333 29.3333H2.66665L1.59998 30.4L1.47198 30.528C1.76786 30.8265 2.12015 31.0633 2.50837 31.2244C2.89659 31.3856 3.31298 31.4679 3.73332 31.4666H28.2667C28.687 31.4679 29.1034 31.3856 29.4916 31.2244C29.8798 31.0633 30.2321 30.8265 30.528 30.528L30.4 30.4L29.3333 29.3333Z" fill="#FFDA45"/>
<path id="Vector_9" d="M30.7797 10.2933L30.7771 10.2891L28.2667 7.7792V3.2C28.2658 2.35157 27.9284 1.53813 27.3285 0.938194C26.7285 0.338261 25.9151 0.000847163 25.0667 0L6.93333 0C6.0849 0.000847163 5.27146 0.338261 4.67153 0.938194C4.07159 1.53813 3.73418 2.35157 3.73333 3.2V7.7792L1.22293 10.2896L1.22027 10.2939C0.451005 11.1209 0.0161563 12.204 0 13.3333L0 28.2667C0.00112926 29.2565 0.394824 30.2054 1.09472 30.9053C1.79461 31.6052 2.74354 31.9989 3.73333 32H28.2667C29.2565 31.9989 30.2054 31.6052 30.9053 30.9053C31.6052 30.2054 31.9989 29.2565 32 28.2667V13.3333C31.984 12.2038 31.5491 11.1205 30.7797 10.2933ZM29.5883 10.6085L28.2667 11.6V9.28747L29.5883 10.6085ZM4.8 3.2C4.8 2.6342 5.02476 2.09158 5.42484 1.69151C5.82492 1.29143 6.36754 1.06667 6.93333 1.06667H25.0667C25.6325 1.06667 26.1751 1.29143 26.5752 1.69151C26.9752 2.09158 27.2 2.6342 27.2 3.2V12.4L17.28 19.84C17.2645 19.8517 17.2432 19.8704 17.2267 19.8837C16.8768 20.1542 16.4416 20.2901 16 20.2667C15.5605 20.29 15.1271 20.1564 14.7771 19.8896C14.7593 19.8717 14.7402 19.8551 14.72 19.84L4.8 12.4V3.2ZM3.73333 11.6L2.41173 10.6091L3.73333 9.28747V11.6ZM1.06667 13.3333C1.09015 12.643 1.30287 11.9723 1.6816 11.3947L12.064 19.1813L1.5088 29.7371C1.21891 29.3016 1.06501 28.7898 1.06667 28.2667V13.3333ZM3.73333 30.9333C3.21028 30.9351 2.69857 30.781 2.26347 30.4907L12.9259 19.8283L14.0565 20.6763C14.6024 21.1252 15.2937 21.3589 16 21.3333C16.7063 21.3589 17.3976 21.1252 17.9435 20.6763L19.0741 19.8283L29.7371 30.4912C29.3016 30.7811 28.7898 30.935 28.2667 30.9333H3.73333ZM30.9333 28.2667C30.9351 28.7897 30.781 29.3014 30.4907 29.7365L19.936 19.1819L30.3184 11.3952C30.697 11.9727 30.9098 12.6432 30.9333 13.3333V28.2667Z" fill="#2B1505"/>
<path id="Vector_10" d="M18.6667 5.8667C18.6667 6.29104 18.8352 6.69801 19.1353 6.99807C19.4354 7.29812 19.8423 7.4667 20.2667 7.4667C20.691 7.4667 21.098 7.29812 21.398 6.99807C21.6981 6.69801 21.8667 6.29104 21.8667 5.8667C21.8667 2.17603 19.2267 2.13336 19.2 2.13336C19.0601 2.1335 18.926 2.1889 18.8268 2.2875C18.7276 2.3861 18.6714 2.5199 18.6704 2.65976C18.6694 2.80033 18.7236 2.93569 18.8213 3.03673C18.919 3.13776 19.0525 3.1964 19.1931 3.20003C19.4996 3.2306 19.7903 3.35058 20.0292 3.54506C20.268 3.73955 20.4445 3.99995 20.5365 4.2939C20.3067 4.25055 20.0702 4.25883 19.844 4.31814C19.6178 4.37746 19.4076 4.48632 19.2286 4.63685C19.0496 4.78738 18.9064 4.97582 18.8092 5.18852C18.712 5.40122 18.6633 5.63287 18.6667 5.8667ZM20.2667 6.40003C20.1612 6.40003 20.0581 6.36875 19.9704 6.31015C19.8827 6.25154 19.8143 6.16825 19.7739 6.07079C19.7336 5.97334 19.723 5.8661 19.7436 5.76265C19.7642 5.65919 19.815 5.56416 19.8895 5.48957C19.9641 5.41498 20.0592 5.36419 20.1626 5.34361C20.2661 5.32303 20.3733 5.33359 20.4708 5.37396C20.5682 5.41433 20.6515 5.48268 20.7101 5.57039C20.7687 5.6581 20.8 5.76121 20.8 5.8667C20.8 6.00814 20.7438 6.1438 20.6438 6.24382C20.5438 6.34384 20.4081 6.40003 20.2667 6.40003Z" fill="#2B1505"/>
<path id="Vector_11" d="M22.9333 5.8667C22.9333 6.29104 23.1019 6.69801 23.402 6.99807C23.702 7.29812 24.109 7.4667 24.5333 7.4667C24.9577 7.4667 25.3646 7.29812 25.6647 6.99807C25.9648 6.69801 26.1333 6.29104 26.1333 5.8667C26.1333 2.17603 23.4933 2.13336 23.4667 2.13336C23.3268 2.1335 23.1927 2.1889 23.0935 2.2875C22.9943 2.3861 22.938 2.5199 22.9371 2.65976C22.936 2.80033 22.9902 2.93569 23.088 3.03673C23.1857 3.13776 23.3192 3.1964 23.4597 3.20003C23.7662 3.2306 24.057 3.35058 24.2958 3.54506C24.5347 3.73955 24.7111 3.99995 24.8032 4.2939C24.5734 4.25055 24.3368 4.25883 24.1106 4.31814C23.8844 4.37746 23.6742 4.48632 23.4953 4.63685C23.3163 4.78738 23.173 4.97582 23.0759 5.18852C22.9787 5.40122 22.93 5.63287 22.9333 5.8667ZM24.5333 6.40003C24.4278 6.40003 24.3247 6.36875 24.237 6.31015C24.1493 6.25154 24.081 6.16825 24.0406 6.07079C24.0002 5.97334 23.9897 5.8661 24.0102 5.76265C24.0308 5.65919 24.0816 5.56416 24.1562 5.48957C24.2308 5.41498 24.3258 5.36419 24.4293 5.34361C24.5327 5.32303 24.64 5.33359 24.7374 5.37396C24.8349 5.41433 24.9182 5.48268 24.9768 5.57039C25.0354 5.6581 25.0667 5.76121 25.0667 5.8667C25.0667 6.00814 25.0105 6.1438 24.9105 6.24382C24.8104 6.34384 24.6748 6.40003 24.5333 6.40003Z" fill="#2B1505"/>
<path id="Vector_12" d="M19.7333 15.4667H12.2667C12.1252 15.4667 11.9896 15.5229 11.8895 15.6229C11.7895 15.7229 11.7333 15.8586 11.7333 16C11.7333 16.1415 11.7895 16.2771 11.8895 16.3771C11.9896 16.4772 12.1252 16.5333 12.2667 16.5333H19.7333C19.8748 16.5333 20.0104 16.4772 20.1105 16.3771C20.2105 16.2771 20.2667 16.1415 20.2667 16C20.2667 15.8586 20.2105 15.7229 20.1105 15.6229C20.0104 15.5229 19.8748 15.4667 19.7333 15.4667Z" fill="#2B1505"/>
<path id="Vector_13" d="M21.8667 13.3333H10.1333C9.99189 13.3333 9.85623 13.3895 9.75622 13.4895C9.6562 13.5895 9.60001 13.7252 9.60001 13.8666C9.60001 14.0081 9.6562 14.1438 9.75622 14.2438C9.85623 14.3438 9.99189 14.4 10.1333 14.4H21.8667C22.0081 14.4 22.1438 14.3438 22.2438 14.2438C22.3438 14.1438 22.4 14.0081 22.4 13.8666C22.4 13.7252 22.3438 13.5895 22.2438 13.4895C22.1438 13.3895 22.0081 13.3333 21.8667 13.3333Z" fill="#2B1505"/>
<path id="Vector_14" d="M6.93333 12.2667H25.0667C25.2081 12.2667 25.3438 12.2105 25.4438 12.1105C25.5438 12.0105 25.6 11.8748 25.6 11.7333C25.6 11.5919 25.5438 11.4562 25.4438 11.3562C25.3438 11.2562 25.2081 11.2 25.0667 11.2H6.93333C6.79188 11.2 6.65622 11.2562 6.5562 11.3562C6.45618 11.4562 6.39999 11.5919 6.39999 11.7333C6.39999 11.8748 6.45618 12.0105 6.5562 12.1105C6.65622 12.2105 6.79188 12.2667 6.93333 12.2667Z" fill="#2B1505"/>
<path id="Vector_15" d="M19.7333 9.06665C19.5919 9.06665 19.4562 9.12284 19.3562 9.22286C19.2562 9.32288 19.2 9.45853 19.2 9.59998C19.2 9.74143 19.2562 9.87709 19.3562 9.97711C19.4562 10.0771 19.5919 10.1333 19.7333 10.1333H24C24.1415 10.1333 24.2771 10.0771 24.3771 9.97711C24.4772 9.87709 24.5333 9.74143 24.5333 9.59998C24.5333 9.45853 24.4772 9.32288 24.3771 9.22286C24.2771 9.12284 24.1415 9.06665 24 9.06665H19.7333Z" fill="#2B1505"/>
<path id="Vector_16" d="M15.4667 10.1333C15.7612 10.1333 16 9.89454 16 9.59998C16 9.30543 15.7612 9.06665 15.4667 9.06665C15.1721 9.06665 14.9333 9.30543 14.9333 9.59998C14.9333 9.89454 15.1721 10.1333 15.4667 10.1333Z" fill="#BEC3D2"/>
<path id="Vector_17" d="M17.6 10.1333C17.8946 10.1333 18.1333 9.89454 18.1333 9.59998C18.1333 9.30543 17.8946 9.06665 17.6 9.06665C17.3055 9.06665 17.0667 9.30543 17.0667 9.59998C17.0667 9.89454 17.3055 10.1333 17.6 10.1333Z" fill="#BEC3D2"/>
</g>
</g>
<defs>
<clipPath id="clip0_21873_730">
<rect width="32" height="32" fill="white"/>
</clipPath>
</defs>
</svg>
