<svg width="32" height="32" viewBox="0 0 32 32" fill="none" xmlns="http://www.w3.org/2000/svg">
<g id="reshot-icon-time-LUKNJZRC95" clip-path="url(#clip0_21873_702)">
<path id="Vector" d="M16.0744 27.5404C22.4077 27.5404 27.5418 22.4063 27.5418 16.073C27.5418 9.73968 22.4077 4.60553 16.0744 4.60553C9.74108 4.60553 4.60693 9.73968 4.60693 16.073C4.60693 22.4063 9.74108 27.5404 16.0744 27.5404Z" fill="#97EFFF"/>
<path id="Vector_2" d="M16.118 21.441C19.0978 21.441 21.5134 19.0254 21.5134 16.0456C21.5134 13.0658 19.0978 10.6502 16.118 10.6502C13.1382 10.6502 10.7226 13.0658 10.7226 16.0456C10.7226 19.0254 13.1382 21.441 16.118 21.441Z" fill="#F5FCFF"/>
<path id="Vector_3" d="M12.2712 26.8948C7.80712 25.3262 4.60681 21.0733 4.60681 16.073C4.60681 9.73966 9.74094 4.60553 16.0743 4.60553C4.36725 7.20022 3.23394 21.8348 12.2712 26.8948Z" fill="#B0F6FF"/>
<path id="Vector_4" d="M18.2964 27.3254C23.5663 26.2907 27.5418 21.6461 27.5418 16.073C27.5418 11.323 24.6539 7.24759 20.538 5.50671C30.2365 12.6697 26.6148 25.2102 18.2964 27.3254Z" fill="#6EE5F4"/>
<path id="Vector_5" d="M16.0004 28.0209C9.37149 28.0209 3.97849 22.6279 3.97849 15.999C3.97849 9.37017 9.37149 3.97717 16.0004 3.97717C22.6292 3.97717 28.0222 9.37017 28.0222 15.999C28.0222 22.6279 22.6292 28.0209 16.0004 28.0209ZM16.0004 5.08586C9.9828 5.08586 5.08717 9.98149 5.08717 15.999C5.08717 22.0166 9.9828 26.9122 16.0004 26.9122C22.0179 26.9122 26.9135 22.0166 26.9135 15.999C26.9135 9.98149 22.0179 5.08586 16.0004 5.08586Z" fill="#FAFAFA"/>
<path id="Vector_6" d="M15.8768 31.9989C15.8755 31.9989 15.8741 31.9989 15.8728 31.9989C13.2609 31.9803 10.66 31.306 8.35133 30.0491C4.86664 28.152 2.22383 25.0476 0.909389 21.3077C-0.395298 17.5953 -0.293236 13.5554 1.19664 9.93226C1.31314 9.6492 1.63701 9.51401 1.92014 9.63038C2.20326 9.74676 2.33839 10.0708 2.22201 10.3539C0.835701 13.7251 0.741014 17.4848 1.95539 20.9401C3.17858 24.4206 5.63826 27.3098 8.88139 29.0753C11.0303 30.2453 13.4506 30.8728 15.8807 30.8901C16.1868 30.8923 16.4333 31.1422 16.4311 31.4483C16.4289 31.7533 16.1811 31.9989 15.8768 31.9989Z" fill="#FAFAFA"/>
<path id="Vector_7" d="M4.70633 6.01553C4.57089 6.01553 4.43526 5.96628 4.32851 5.86672C4.10458 5.65797 4.0922 5.30722 4.30095 5.08328L4.32689 5.05547C4.53608 4.83191 4.88683 4.82028 5.11045 5.02947C5.33395 5.23866 5.34564 5.58941 5.13645 5.81303L5.11189 5.83922C5.00283 5.95622 4.8547 6.01553 4.70633 6.01553Z" fill="black"/>
<path id="Vector_8" d="M21.4328 31.0095C21.2029 31.0095 20.9945 30.8653 20.9139 30.6503C20.8622 30.5113 20.8666 30.3605 20.928 30.226C20.9894 30.0908 21.0995 29.988 21.2384 29.9363L21.2458 29.9333C21.3086 29.9097 21.3744 29.8978 21.4409 29.8978C21.6701 29.8978 21.8793 30.042 21.9598 30.257C21.9834 30.3206 21.9953 30.3871 21.9953 30.4544C21.9946 30.6828 21.8504 30.8905 21.6361 30.971L21.628 30.974C21.5651 30.9977 21.4993 31.0095 21.4328 31.0095ZM26.5919 27.7973C26.4374 27.7973 26.2948 27.7359 26.1883 27.6236C25.9791 27.4011 25.9895 27.0493 26.2119 26.8394L26.2141 26.8372C26.2311 26.821 26.2481 26.8054 26.2651 26.7892C26.3686 26.6908 26.5046 26.6362 26.6473 26.6362C26.801 26.6362 26.9436 26.6975 27.0493 26.8083C27.1476 26.9118 27.2023 27.0478 27.2016 27.1912C27.2016 27.3442 27.1409 27.4868 27.0301 27.5918L26.9724 27.6465C26.8691 27.744 26.7338 27.7973 26.5919 27.7973ZM30.1345 22.7772C30.0569 22.7772 29.9823 22.7609 29.9106 22.7298C29.7753 22.67 29.6711 22.5613 29.6179 22.4231C29.5639 22.2849 29.5676 22.1341 29.6275 21.9988C29.6356 21.9811 29.643 21.9627 29.6511 21.9449L29.6571 21.9316C29.745 21.7291 29.9446 21.5983 30.1656 21.5983C30.2417 21.5983 30.3163 21.6138 30.3866 21.6448C30.5891 21.7328 30.7192 21.9323 30.7199 22.1526C30.7199 22.2287 30.7044 22.3034 30.6734 22.3743C30.663 22.3987 30.6527 22.4224 30.6416 22.4468C30.5528 22.6471 30.354 22.7772 30.1345 22.7772ZM31.4449 16.7755C31.4428 16.7755 31.4398 16.7755 31.4376 16.7755C31.1316 16.771 30.8862 16.519 30.8906 16.2137C30.8906 16.1886 30.8914 16.1642 30.8914 16.1398C30.8936 15.8367 31.1427 15.5906 31.4457 15.5906H31.4501C31.7524 15.5928 31.9986 15.8404 32 16.142C32 16.1442 32 16.1472 32 16.1493L31.9993 16.2284C31.9948 16.5301 31.7465 16.7755 31.4449 16.7755ZM30.3067 10.7376C30.0798 10.7376 29.8788 10.6016 29.793 10.3917C29.7864 10.3747 29.7789 10.3577 29.7723 10.3407L29.7649 10.3237C29.7376 10.2564 29.7236 10.1862 29.7236 10.1145C29.7228 9.88754 29.8581 9.68579 30.0673 9.60004C30.1345 9.57197 30.2054 9.55791 30.2779 9.55791C30.5033 9.55791 30.7044 9.69316 30.7908 9.9016C30.7989 9.92154 30.8071 9.94154 30.8152 9.96147L30.8204 9.97479C30.9357 10.2578 30.7982 10.5816 30.5151 10.6969C30.4486 10.7243 30.3784 10.7376 30.3067 10.7376ZM26.9104 5.61847C26.7626 5.61847 26.6237 5.56085 26.5194 5.4566L26.4669 5.40485C26.3598 5.29841 26.3006 5.15722 26.3021 5.00722C26.3029 4.8616 26.3591 4.72416 26.4618 4.62066C26.5667 4.51422 26.7064 4.45585 26.8564 4.45585C27.0028 4.45585 27.141 4.51279 27.2452 4.61547C27.2614 4.63097 27.2777 4.64729 27.294 4.66354L27.3021 4.67166C27.5187 4.88747 27.5187 5.23854 27.3029 5.4551C27.1987 5.56085 27.059 5.61847 26.9104 5.61847ZM9.67413 2.46541C9.45607 2.46541 9.25725 2.33679 9.16782 2.13722C9.04288 1.8586 9.16782 1.52966 9.44719 1.40479C9.45757 1.40035 9.46788 1.39516 9.47825 1.39072C9.49157 1.38479 9.50563 1.37891 9.51963 1.37222C9.59057 1.34116 9.666 1.32491 9.74357 1.32491C9.96232 1.32491 10.1619 1.45497 10.2506 1.65529C10.3741 1.93466 10.2469 2.26285 9.96757 2.38629L9.96682 2.38704C9.94463 2.39666 9.92319 2.40622 9.901 2.41585C9.901 2.4166 9.901 2.4166 9.90025 2.4166C9.82863 2.44841 9.7525 2.46541 9.67413 2.46541ZM21.7831 2.23254C21.7114 2.23254 21.6419 2.21922 21.5747 2.19191L21.5067 2.16454C21.2938 2.07954 21.1571 1.87629 21.1578 1.64716C21.1586 1.57766 21.1719 1.50897 21.1978 1.44391C21.2828 1.23254 21.4845 1.09504 21.7129 1.09504C21.7831 1.09504 21.8526 1.10835 21.9184 1.13497L21.9258 1.13791C21.9473 1.14679 21.9694 1.15566 21.9916 1.16454C22.1291 1.21997 22.2363 1.32566 22.2939 1.46241C22.3516 1.59841 22.3523 1.74916 22.2969 1.88666C22.2118 2.09654 22.0101 2.23254 21.7831 2.23254ZM15.6677 1.11129C15.5221 1.11129 15.3846 1.0551 15.2804 0.953849C15.1754 0.851849 15.1163 0.715099 15.1133 0.569537C15.1133 0.564349 15.1133 0.559912 15.1133 0.555474C15.1133 0.409849 15.1695 0.273099 15.2715 0.168912C15.3728 0.0654117 15.5095 0.00628671 15.6551 0.00259921C15.6684 0.00259921 15.6818 0.00184921 15.6958 0.00184921L15.7342 0.00109921C15.8843 -0.00108829 16.0254 0.0550367 16.1318 0.160037C16.2368 0.262037 16.2952 0.399537 16.2981 0.545849C16.3003 0.693662 16.2456 0.834099 16.1422 0.940537C16.0394 1.04697 15.9013 1.10685 15.7534 1.10979C15.7291 1.10979 15.7054 1.11054 15.681 1.11129H15.6795C15.6758 1.11129 15.6714 1.11129 15.6677 1.11129Z" fill="#FAFAFA"/>
<path id="Vector_9" d="M21.3995 31.0222C21.1745 31.0222 20.9629 30.8842 20.8798 30.6609C20.7731 30.3739 20.9192 30.0548 21.2062 29.9481L21.2389 29.9359C21.5254 29.8281 21.8451 29.973 21.9529 30.2596C22.0606 30.5461 21.9157 30.8658 21.6292 30.9736L21.5926 30.9873C21.5289 31.011 21.4637 31.0222 21.3995 31.0222Z" fill="black"/>
<path id="Vector_10" d="M21.3519 21.9049C21.2104 21.9049 21.0689 21.8511 20.9608 21.7434L15.5862 16.393C15.4813 16.2886 15.4225 16.1465 15.423 15.9984L15.4461 8.50526C15.4471 8.1997 15.6951 7.95264 16.0004 7.95264C16.001 7.95264 16.0016 7.95264 16.0021 7.95264C16.3083 7.95357 16.5558 8.20251 16.5548 8.5087L16.5324 15.7706L21.743 20.9578C21.96 21.1738 21.9608 21.5248 21.7448 21.7418C21.6364 21.8505 21.4941 21.9049 21.3519 21.9049Z" fill="black"/>
<path id="Vector_11" d="M21.2469 18.1188C21.1945 18.1188 21.1412 18.1114 21.0885 18.0956C20.795 18.0082 20.6281 17.6995 20.7154 17.4061C20.8509 16.9516 20.9194 16.4783 20.9194 15.9992C20.9194 14.3186 20.0745 12.7711 18.6594 11.8599C18.402 11.6943 18.3277 11.3511 18.4935 11.0938C18.6594 10.8363 19.0023 10.7621 19.2597 10.9278C20.9932 12.044 22.0281 13.9398 22.0281 15.9991C22.0281 16.5855 21.9439 17.1653 21.778 17.7226C21.7063 17.9631 21.4857 18.1188 21.2469 18.1188Z" fill="black"/>
<path id="Vector_12" d="M16.0004 22.0268C12.6766 22.0268 9.97263 19.3228 9.97263 15.9991C9.97263 13.885 11.0499 11.9625 12.8544 10.8565C13.1155 10.6965 13.4568 10.7784 13.6168 11.0394C13.7768 11.3004 13.6948 11.6417 13.4338 11.8017C11.9607 12.7045 11.0813 14.2737 11.0813 15.9991C11.0813 18.7115 13.2879 20.9181 16.0003 20.9181C16.3501 20.9181 16.6991 20.8813 17.0376 20.8087C17.3372 20.7444 17.6317 20.9351 17.6958 21.2345C17.7601 21.5338 17.5695 21.8285 17.2701 21.8927C16.8554 21.9817 16.4283 22.0268 16.0004 22.0268Z" fill="black"/>
</g>
<defs>
<clipPath id="clip0_21873_702">
<rect width="32" height="32" fill="white"/>
</clipPath>
</defs>
</svg>
